<svg xmlns="http://www.w3.org/2000/svg" xmlns:xlink="http://www.w3.org/1999/xlink"><symbol viewBox="0 0 24 24" id="cart" xmlns="http://www.w3.org/2000/svg"><g stroke="currentColor" fill="none" fill-rule="evenodd"><path d="M17.962 9.5l1.467 11H4.57l1.467-11h11.924zM9 8V6a3 3 0 116 0v2h0"/></g></symbol><symbol viewBox="0 0 24 24" id="cart-fill" xmlns="http://www.w3.org/2000/svg"><g fill="none" fill-rule="evenodd"><path fill="currentColor" d="M18.4 9H5.6L4 21h16z"/><path stroke="currentColor" d="M9 8V6a3 3 0 116 0v2h0"/></g></symbol><symbol viewBox="0 0 12 22" id="facebook" xmlns="http://www.w3.org/2000/svg"><path d="M3.289 22h4.163v-9.799h3.41l.574-4.127H7.452v-3.1s.045-1.078 1.472-1.212c1.427-.134 2.435 0 2.435 0v-3.5S9.664-.168 7.821.074C5.976.316 5.048.963 5.048.963S3.288 2.16 3.288 4.26v3.814H0v4.034h3.289V22z" fill="currentColor" fill-rule="evenodd"/></symbol><symbol viewBox="0 0 24 22" id="kakao" xmlns="http://www.w3.org/2000/svg"><path d="M0 9.43c0 3.223 2.056 6.067 5.191 7.768-.05.618-.446 2.163-2.811 4.634 0 0 2.036.19 7.414-3.128.716.105 1.452.16 2.206.16 6.628 0 12-4.224 12-9.433C24 4.223 18.628 0 12 0S0 4.223 0 9.43z" fill="currentColor" fill-rule="evenodd"/></symbol><symbol viewBox="0 0 90 40" id="logo" xmlns="http://www.w3.org/2000/svg"><path d="M73.589 12.232l-3.999 7.032-4.003-7.032h-2.879l5.438 9.569v6.3h2.892v-6.294l5.441-9.575zm-64.203 0v6.597h-6.71v-6.597H0v15.869h2.676v-6.596h6.71v6.596h2.675V12.232zm23.41.001v2.675H39.9l-7.349 13.193h11.627v-2.675h-7.074l7.327-13.193zm-8.761 0H21.41l-5.975 15.868h2.573l1.314-3.48.168-.44h6.524l.168.44 1.314 3.48h2.573l-5.975-15.868h-.059zm-1.283 3.374l2.245 5.898h-4.49l2.245-5.898zm25.257-3.374v2.675h7.105l-7.349 13.193h11.627v-2.675h-7.074l7.327-13.193zm38.585 7.157l-2.245-.908c-1.32-.501-2.566-.974-2.566-2.228 0-1.16 1.01-1.882 2.635-1.882 1.303 0 2.422.434 3.522 1.364l.088.075 1.507-1.736-.083-.08C88.14 12.727 86.305 12 84.418 12c-3.13 0-5.492 1.893-5.492 4.402 0 1.87 1.146 3.277 3.405 4.183l2.265.928.069.029c1.438.602 2.477 1.037 2.477 2.347 0 1.278-1.138 2.073-2.968 2.073-1.486 0-3.083-.674-4.271-1.803l-.088-.083-1.67 1.865.085.082c1.524 1.468 3.674 2.311 5.9 2.311 3.456 0 5.87-1.906 5.87-4.634 0-2.6-1.82-3.67-3.406-4.31" fill="currentColor" fill-rule="evenodd"/></symbol><symbol viewBox="0 0 24 24" id="menu" xmlns="http://www.w3.org/2000/svg"><path d="M3.5 9.5h17v5h-17zm-.5-4h18m-18 13h18" stroke="currentColor" fill="none" fill-rule="evenodd"/></symbol><symbol viewBox="0 0 24 24" id="my" xmlns="http://www.w3.org/2000/svg"><g stroke="currentColor" transform="translate(4 3)" fill="none" fill-rule="evenodd"><circle cx="8" cy="3" r="2.5"/><path d="M10 7.5a5.49 5.49 0 013.89 1.61A5.49 5.49 0 0115.5 13h0v3.5H.5V13A5.498 5.498 0 016 7.5h4z"/></g></symbol><symbol viewBox="0 0 20 19" id="naver" xmlns="http://www.w3.org/2000/svg"><path d="M13.286 0v9.367L6.882 0H0v18.16h6.738V8.722l6.548 9.438H20V0z" fill="currentColor" fill-rule="evenodd"/></symbol><symbol viewBox="0 0 24 24" id="search" xmlns="http://www.w3.org/2000/svg"><g stroke="currentColor" transform="translate(3 3)" fill="none" fill-rule="evenodd"><circle cx="7" cy="7" r="6.5"/><path d="M18 18l-5.295-5.295"/></g></symbol></svg>