<svg xmlns="http://www.w3.org/2000/svg" width="90" height="40" viewBox="0 0 90 40">
    <g fill="none" fill-rule="evenodd">
        <g fill="currentColor">
            <path d="M73.589.232L69.59 7.264 65.587.232 62.708.232 68.146 9.801 68.146 16.101 71.038 16.101 71.038 9.807 76.479.232zM9.386.232L9.386 6.829 2.676 6.829 2.676.232 0 .232 0 16.101 2.676 16.101 2.676 9.505 9.386 9.505 9.386 16.101 12.061 16.101 12.061.232zM32.796.233L32.796 2.908 39.9 2.908 32.551 16.101 44.178 16.101 44.178 13.426 37.104 13.426 44.431.233zM24.035.233H21.41l-5.975 15.868h2.573l1.314-3.48.168-.44h6.524l.168.44 1.314 3.48h2.573L24.094.233h-.059zm-1.283 3.374l2.245 5.898h-4.49l2.245-5.898zM48.009.233L48.009 2.908 55.114 2.908 47.765 16.101 59.392 16.101 59.392 13.426 52.318 13.426 59.645.233zM86.594 7.39l-2.245-.908c-1.32-.501-2.566-.974-2.566-2.228 0-1.16 1.01-1.882 2.635-1.882 1.303 0 2.422.434 3.522 1.364l.088.075 1.507-1.736-.083-.08C88.14.727 86.305 0 84.418 0c-3.13 0-5.492 1.893-5.492 4.402 0 1.87 1.146 3.277 3.405 4.183l2.265.928.069.029c1.438.602 2.477 1.037 2.477 2.347 0 1.278-1.138 2.073-2.968 2.073-1.486 0-3.083-.674-4.271-1.803l-.088-.083-1.67 1.865.085.082c1.524 1.468 3.674 2.311 5.9 2.311 3.456 0 5.87-1.906 5.87-4.634 0-2.6-1.82-3.67-3.406-4.31" transform="translate(-48 -259) translate(48 259) translate(0 12)"/>
        </g>
    </g>
</svg>
